<svg width="140" height="60" viewBox="0 0 140 60" fill="none" xmlns="http://www.w3.org/2000/svg">
<rect width="140" height="60" rx="30" fill="black"/>
<path d="M30.4531 36L26.0938 24.6094H26.0234C26.1055 25.5117 26.1465 26.584 26.1465 27.8262V36H24.7666V23.1504H27.0166L31.0859 33.75H31.1562L35.2607 23.1504H37.4932V36H35.999V27.7207C35.999 26.7715 36.04 25.7402 36.1221 24.627H36.0518L31.6572 36H30.4531ZM44.876 36.1758C43.4521 36.1758 42.3271 35.7422 41.501 34.875C40.6807 34.0078 40.2705 32.8037 40.2705 31.2627C40.2705 29.71 40.6514 28.4766 41.4131 27.5625C42.1807 26.6484 43.209 26.1914 44.498 26.1914C45.7051 26.1914 46.6602 26.5898 47.3633 27.3867C48.0664 28.1777 48.418 29.2236 48.418 30.5244V31.4473H41.7822C41.8115 32.5781 42.0957 33.4365 42.6348 34.0225C43.1797 34.6084 43.9443 34.9014 44.9287 34.9014C45.9658 34.9014 46.9912 34.6846 48.0049 34.251V35.5518C47.4893 35.7744 47 35.9326 46.5371 36.0264C46.0801 36.126 45.5264 36.1758 44.876 36.1758ZM44.4805 27.4131C43.707 27.4131 43.0889 27.665 42.626 28.1689C42.1689 28.6729 41.8994 29.3701 41.8174 30.2607H46.8535C46.8535 29.3408 46.6484 28.6377 46.2383 28.1514C45.8281 27.6592 45.2422 27.4131 44.4805 27.4131ZM57.5059 36V29.7686C57.5059 28.9834 57.3271 28.3975 56.9697 28.0107C56.6123 27.624 56.0527 27.4307 55.291 27.4307C54.2832 27.4307 53.5449 27.7031 53.0762 28.248C52.6074 28.793 52.373 29.6924 52.373 30.9463V36H50.9141V26.3672H52.1006L52.3379 27.6855H52.4082C52.707 27.2109 53.126 26.8447 53.665 26.5869C54.2041 26.3232 54.8047 26.1914 55.4668 26.1914C56.627 26.1914 57.5 26.4727 58.0859 27.0352C58.6719 27.5918 58.9648 28.4854 58.9648 29.7158V36H57.5059ZM63.3418 26.3672V32.6162C63.3418 33.4014 63.5205 33.9873 63.8779 34.374C64.2354 34.7607 64.7949 34.9541 65.5566 34.9541C66.5645 34.9541 67.2998 34.6787 67.7627 34.1279C68.2314 33.5771 68.4658 32.6777 68.4658 31.4297V26.3672H69.9248V36H68.7207L68.5098 34.708H68.4307C68.1318 35.1826 67.7158 35.5459 67.1826 35.7979C66.6553 36.0498 66.0518 36.1758 65.3721 36.1758C64.2002 36.1758 63.3213 35.8975 62.7354 35.3408C62.1553 34.7842 61.8652 33.8936 61.8652 32.6689V26.3672H63.3418Z" fill="white"/>
<path d="M92 27H117.5" stroke="white" stroke-width="2"/>
<path d="M92 34H105" stroke="white" stroke-width="2"/>
</svg>
